<svg width="356" height="518" viewBox="0 0 356 518" fill="none" xmlns="http://www.w3.org/2000/svg">
<path d="M74.6943 167.308C74.6943 166.067 74.9449 165.148 75.4462 164.551C75.9475 163.955 76.5323 163.465 77.2006 163.083C77.869 162.701 78.4538 162.272 78.9551 161.794C79.4563 161.293 79.707 160.529 79.707 159.503V133.366C79.707 132.315 79.4563 131.54 78.9551 131.038C78.4538 130.537 77.869 130.107 77.2006 129.749C76.5323 129.367 75.9475 128.878 75.4462 128.281C74.9449 127.685 74.6943 126.778 74.6943 125.56C74.6943 124.223 75.0882 123.245 75.8759 122.624C76.6874 121.98 77.7258 121.657 78.9909 121.657H100.33C105.677 121.657 110.475 122.744 114.724 124.916C118.973 127.064 122.326 130.131 124.785 134.117C127.267 138.104 128.509 142.854 128.509 148.368C128.509 153.118 127.399 157.2 125.179 160.613C122.959 164.026 119.975 166.652 116.228 168.49C112.48 170.304 108.327 171.211 103.768 171.211H78.9909C77.7019 171.211 76.6636 170.901 75.8759 170.28C75.0882 169.66 74.6943 168.669 74.6943 167.308ZM102.085 163.227C103.851 163.227 105.283 162.69 106.381 161.615C107.479 160.541 108.315 159.193 108.888 157.57C109.484 155.946 109.89 154.264 110.105 152.521C110.32 150.779 110.427 149.251 110.427 147.938C110.427 146.1 110.26 144.131 109.926 142.03C109.592 139.906 108.995 137.913 108.136 136.051C107.3 134.165 106.131 132.626 104.627 131.432C103.147 130.239 101.237 129.642 98.8982 129.642H97.3228V157.641C97.3228 159.264 97.657 160.601 98.3254 161.651C99.0176 162.701 100.271 163.227 102.085 163.227Z" fill="#008A7B"/>
<path d="M151.532 133.401C155.471 133.401 158.92 134.213 161.88 135.836C164.864 137.459 167.191 139.739 168.862 142.675C170.533 145.611 171.368 149.06 171.368 153.022C171.368 156.913 170.449 160.303 168.611 163.191C166.773 166.055 164.303 168.287 161.2 169.886C158.12 171.462 154.695 172.249 150.924 172.249C146.961 172.249 143.488 171.438 140.505 169.815C137.521 168.168 135.194 165.864 133.523 162.904C131.876 159.921 131.052 156.448 131.052 152.485C131.052 148.618 131.983 145.253 133.845 142.388C135.707 139.524 138.189 137.316 141.292 135.764C144.395 134.189 147.809 133.401 151.532 133.401ZM153.573 164.337C154.17 164.337 154.588 164.026 154.826 163.406C155.089 162.785 155.256 162.105 155.328 161.365C155.399 160.601 155.435 160.016 155.435 159.61C155.435 158.25 155.328 156.901 155.113 155.564C154.898 154.204 154.624 152.867 154.289 151.554C154.17 151.029 153.943 150.218 153.609 149.12C153.275 147.998 152.869 146.828 152.392 145.611C151.914 144.393 151.389 143.355 150.816 142.496C150.243 141.636 149.635 141.207 148.99 141.207C148.441 141.207 148.036 141.517 147.773 142.138C147.534 142.758 147.379 143.451 147.308 144.214C147.236 144.954 147.2 145.515 147.2 145.897C147.2 146.542 147.296 147.58 147.487 149.012C147.677 150.421 147.952 151.996 148.31 153.738C148.692 155.481 149.145 157.164 149.671 158.787C150.196 160.386 150.781 161.711 151.425 162.761C152.093 163.811 152.809 164.337 153.573 164.337Z" fill="#008A7B"/>
<path d="M208.606 145.145C208.606 147.389 207.795 149.096 206.172 150.265C204.549 151.435 202.711 152.02 200.658 152.02C198.557 152.02 196.874 151.447 195.609 150.301C194.344 149.155 193.712 147.508 193.712 145.36C193.712 144.381 193.58 143.391 193.318 142.388C193.079 141.386 192.303 140.885 190.991 140.885C189.988 140.885 189.224 141.374 188.699 142.353C188.174 143.331 187.816 144.429 187.625 145.647C187.458 146.864 187.374 147.843 187.374 148.583C187.374 150.635 187.708 152.593 188.377 154.455C189.045 156.316 190.107 157.832 191.563 159.002C193.02 160.147 194.905 160.72 197.221 160.72C198.581 160.72 199.93 160.398 201.266 159.754C202.603 159.085 203.785 158.429 204.811 157.784C205.838 157.14 206.554 156.818 206.959 156.818C207.699 156.818 208.189 157.116 208.427 157.713C208.666 158.286 208.785 158.858 208.785 159.431C208.785 161.58 208.272 163.453 207.246 165.053C206.243 166.652 204.907 167.989 203.236 169.063C201.589 170.113 199.787 170.901 197.829 171.426C195.896 171.975 193.998 172.249 192.136 172.249C188.556 172.249 185.333 171.486 182.469 169.958C179.629 168.406 177.373 166.246 175.702 163.477C174.055 160.708 173.231 157.51 173.231 153.882C173.231 149.943 174.031 146.434 175.63 143.355C177.23 140.276 179.497 137.853 182.433 136.087C185.393 134.297 188.878 133.401 192.888 133.401C194.678 133.401 196.493 133.628 198.331 134.082C200.168 134.511 201.863 135.204 203.415 136.158C204.966 137.089 206.219 138.307 207.174 139.81C208.129 141.29 208.606 143.069 208.606 145.145Z" fill="#008A7B"/>
<path d="M223.825 172.249C221.557 172.249 219.66 171.677 218.132 170.531C216.628 169.361 215.506 167.845 214.766 165.984C214.026 164.122 213.656 162.164 213.656 160.112V147.938C213.656 147.055 213.585 146.434 213.441 146.076C213.298 145.694 212.892 145.205 212.224 144.608C211.699 144.131 211.198 143.689 210.72 143.283C210.267 142.854 210.04 142.233 210.04 141.422C210.04 140.491 210.338 139.763 210.935 139.238C211.556 138.689 212.26 138.259 213.048 137.949L220.925 134.834C221.856 134.452 222.787 134.117 223.717 133.831C224.672 133.545 225.663 133.401 226.689 133.401C227.668 133.401 228.42 133.747 228.945 134.44C229.47 135.108 229.733 135.896 229.733 136.803V156.245C229.733 156.913 229.804 157.629 229.947 158.393C230.115 159.157 230.425 159.813 230.878 160.362C231.332 160.887 231.988 161.15 232.848 161.15C233.731 161.15 234.507 160.959 235.175 160.577C235.843 160.171 236.452 159.682 237.001 159.109V147.938C237.001 147.031 236.917 146.375 236.75 145.969C236.607 145.539 236.165 145.038 235.426 144.465C234.877 144.035 234.399 143.618 233.993 143.212C233.588 142.806 233.385 142.209 233.385 141.422C233.385 140.491 233.683 139.763 234.28 139.238C234.9 138.689 235.605 138.259 236.392 137.949L244.269 134.834C245.2 134.452 246.131 134.117 247.062 133.831C248.017 133.545 249.007 133.401 250.034 133.401C251.012 133.401 251.764 133.736 252.29 134.404C252.839 135.072 253.113 135.872 253.113 136.803V160.434C253.113 161.102 253.137 161.771 253.185 162.439C253.256 163.083 253.531 163.68 254.008 164.229C254.605 164.874 255.13 165.411 255.584 165.84C256.037 166.27 256.264 166.974 256.264 167.953C256.264 169.027 255.942 169.839 255.297 170.388C254.653 170.937 253.805 171.211 252.755 171.211H244.592C242.777 171.211 241.178 170.531 239.794 169.17C238.433 167.81 237.753 166.234 237.753 164.444C236.44 165.709 235.008 166.938 233.456 168.132C231.905 169.325 230.305 170.316 228.658 171.104C227.035 171.867 225.424 172.249 223.825 172.249Z" fill="#008A7B"/>
<path d="M262.352 146.577H275.457C276.149 146.577 276.734 146.745 277.211 147.079C277.712 147.389 277.963 147.926 277.963 148.69C277.963 149.215 277.867 149.74 277.676 150.265C277.509 150.79 277.354 151.316 277.211 151.841C276.996 152.605 276.745 153.392 276.459 154.204C276.173 154.992 275.767 155.66 275.242 156.209C274.717 156.734 273.953 156.997 272.95 156.997H259.81C259.118 156.997 258.521 156.841 258.02 156.531C257.542 156.197 257.304 155.648 257.304 154.884C257.304 154.216 257.399 153.571 257.59 152.951C257.805 152.33 258.032 151.721 258.27 151.125V151.053C258.366 150.91 258.437 150.695 258.485 150.409C258.676 149.406 259.082 148.523 259.702 147.759C260.347 146.971 261.23 146.577 262.352 146.577Z" fill="#008A7B"/>
<path d="M89.6964 184.401C90.6751 184.401 91.4151 184.747 91.9163 185.44C92.4415 186.108 92.704 186.896 92.704 187.803V191.419C94.5659 189.653 96.6187 188.042 98.8624 186.585C101.13 185.129 103.338 184.401 105.486 184.401C108.04 184.401 110.081 185.141 111.609 186.621C113.137 188.101 114.199 189.903 114.795 192.028C116.061 190.787 117.421 189.581 118.877 188.411C120.333 187.242 121.849 186.287 123.424 185.547C125 184.783 126.599 184.401 128.222 184.401C130.49 184.401 132.352 184.998 133.808 186.192C135.288 187.361 136.374 188.877 137.066 190.739C137.782 192.577 138.14 194.51 138.14 196.539V211.434C138.14 211.983 138.176 212.675 138.248 213.511C138.319 214.322 138.582 214.919 139.035 215.301V215.337C139.56 215.886 140.026 216.423 140.432 216.948C140.837 217.449 141.04 218.117 141.04 218.953C141.04 220.003 140.718 220.815 140.074 221.388C139.429 221.937 138.594 222.211 137.567 222.211H122.852C121.873 222.211 121.109 221.913 120.56 221.316C120.011 220.695 119.737 219.908 119.737 218.953C119.737 218.07 119.939 217.389 120.345 216.912C120.775 216.435 121.193 215.909 121.598 215.337C122.004 214.74 122.207 213.881 122.207 212.759V200.406C122.207 199.738 122.135 199.034 121.992 198.294C121.849 197.53 121.563 196.873 121.133 196.324C120.703 195.775 120.059 195.501 119.199 195.501C118.412 195.501 117.708 195.716 117.087 196.145C116.49 196.575 115.929 197.052 115.404 197.577V212.436C115.404 213.701 115.607 214.644 116.013 215.265C116.419 215.886 116.824 216.435 117.23 216.912C117.636 217.389 117.839 218.07 117.839 218.953C117.839 219.932 117.564 220.719 117.015 221.316C116.49 221.913 115.726 222.211 114.724 222.211H100.116C99.1131 222.211 98.3492 221.913 97.8241 221.316C97.299 220.695 97.0364 219.908 97.0364 218.953C97.0364 218.07 97.2393 217.389 97.6451 216.912C98.0509 216.411 98.4566 215.874 98.8624 215.301C99.2682 214.728 99.4711 213.881 99.4711 212.759V200.406C99.4711 199.738 99.3995 199.034 99.2563 198.294C99.1131 197.53 98.8266 196.873 98.397 196.324C97.9673 195.775 97.3228 195.501 96.4635 195.501C95.6997 195.501 95.0075 195.716 94.3868 196.145C93.7662 196.551 93.2053 197.028 92.704 197.577V212.436C92.704 213.725 92.9069 214.68 93.3127 215.301C93.7185 215.921 94.1243 216.47 94.5301 216.948C94.9358 217.401 95.1387 218.07 95.1387 218.953C95.1387 219.908 94.8762 220.695 94.351 221.316C93.8259 221.913 93.0621 222.211 92.0595 222.211H77.3438C76.3174 222.211 75.482 221.937 74.8375 221.388C74.193 220.815 73.8708 220.003 73.8708 218.953C73.8708 217.903 74.1095 217.127 74.5869 216.626C75.0882 216.124 75.5775 215.587 76.0549 215.014C76.5323 214.418 76.771 213.487 76.771 212.222V198.938C76.771 197.864 76.6039 197.064 76.2697 196.539C75.9355 195.99 75.5536 195.56 75.124 195.25C74.6943 194.94 74.3124 194.594 73.9782 194.212C73.644 193.806 73.4769 193.209 73.4769 192.422C73.4769 191.443 73.7634 190.703 74.3363 190.202C74.933 189.7 75.6372 189.283 76.4487 188.949L84.0035 185.834C84.9106 185.452 85.8295 185.117 86.7605 184.831C87.7153 184.545 88.6939 184.401 89.6964 184.401Z" fill="#008A7B"/>
<path d="M178.493 198.544C178.493 200.669 177.861 202.28 176.596 203.378C175.354 204.476 173.707 205.025 171.655 205.025H157.225C157.774 207.078 158.753 208.808 160.161 210.217C161.57 211.601 163.599 212.293 166.248 212.293C167.298 212.293 168.337 212.078 169.363 211.649C170.413 211.195 171.392 210.67 172.299 210.073C173.23 209.477 174.042 208.963 174.734 208.534C175.426 208.08 175.951 207.853 176.309 207.853C177.001 207.853 177.503 208.104 177.813 208.605C178.123 209.083 178.278 209.632 178.278 210.252C178.278 212.424 177.765 214.334 176.739 215.981C175.736 217.604 174.4 218.953 172.729 220.027C171.082 221.101 169.268 221.901 167.286 222.426C165.329 222.975 163.396 223.249 161.486 223.249C157.739 223.249 154.433 222.474 151.568 220.922C148.704 219.371 146.46 217.198 144.837 214.406C143.238 211.589 142.438 208.283 142.438 204.488C142.438 200.43 143.214 196.897 144.765 193.89C146.341 190.882 148.596 188.555 151.532 186.908C154.468 185.237 157.989 184.401 162.095 184.401C164.935 184.401 167.597 184.938 170.079 186.013C172.586 187.087 174.614 188.674 176.166 190.775C177.718 192.875 178.493 195.465 178.493 198.544ZM156.581 199.511C156.581 199.774 156.581 200.036 156.581 200.299H160.305C161.212 200.299 161.832 200.096 162.166 199.69C162.501 199.26 162.668 198.616 162.668 197.757C162.668 197.184 162.596 196.432 162.453 195.501C162.31 194.57 162.023 193.734 161.594 192.994C161.188 192.255 160.591 191.885 159.803 191.885C159.087 191.885 158.514 192.183 158.085 192.78C157.655 193.353 157.333 194.081 157.118 194.964C156.903 195.823 156.76 196.67 156.688 197.506C156.617 198.341 156.581 199.01 156.581 199.511Z" fill="#008A7B"/>
<path d="M196.755 184.401C197.734 184.401 198.474 184.747 198.975 185.44C199.5 186.108 199.763 186.896 199.763 187.803V191.097C201.648 189.354 203.725 187.803 205.993 186.442C208.26 185.082 210.504 184.401 212.724 184.401C215.039 184.401 216.961 184.974 218.489 186.12C220.016 187.266 221.162 188.758 221.926 190.596C222.713 192.434 223.107 194.415 223.107 196.539V211.434C223.107 212.102 223.131 212.759 223.179 213.403C223.251 214.048 223.513 214.656 223.967 215.229C224.516 215.921 224.993 216.458 225.399 216.84C225.828 217.222 226.043 217.926 226.043 218.953C226.043 220.003 225.721 220.815 225.077 221.388C224.432 221.937 223.597 222.211 222.57 222.211H207.604C206.601 222.211 205.826 221.913 205.277 221.316C204.751 220.719 204.489 219.932 204.489 218.953C204.489 218.046 204.692 217.342 205.098 216.84C205.527 216.315 205.945 215.778 206.351 215.229C206.78 214.656 206.995 213.857 206.995 212.83V200.406C206.995 199.284 206.768 198.186 206.315 197.112C205.885 196.038 204.978 195.501 203.594 195.501C202.758 195.501 202.042 195.668 201.446 196.002C200.849 196.312 200.288 196.718 199.763 197.219V211.864C199.763 212.508 199.787 213.164 199.834 213.833C199.882 214.477 200.121 215.074 200.55 215.623C201.052 216.22 201.469 216.709 201.804 217.091C202.138 217.449 202.305 218.07 202.305 218.953C202.305 219.932 202.03 220.719 201.481 221.316C200.956 221.913 200.192 222.211 199.19 222.211H184.223C183.197 222.211 182.362 221.937 181.717 221.388C181.073 220.815 180.75 220.003 180.75 218.953C180.75 218.165 180.894 217.556 181.18 217.127C181.49 216.673 181.837 216.256 182.218 215.874C182.6 215.492 182.935 215.026 183.221 214.477C183.531 213.928 183.686 213.176 183.686 212.222V198.938C183.686 197.864 183.519 197.052 183.185 196.503C182.851 195.954 182.457 195.525 182.004 195.214C181.55 194.88 181.156 194.522 180.822 194.14C180.488 193.758 180.321 193.185 180.321 192.422C180.321 191.491 180.631 190.763 181.252 190.238C181.872 189.689 182.565 189.259 183.328 188.949L191.062 185.834C191.969 185.452 192.888 185.117 193.819 184.831C194.774 184.545 195.753 184.401 196.755 184.401Z" fill="#008A7B"/>
<path d="M231.308 197.577H244.412C245.105 197.577 245.69 197.745 246.167 198.079C246.668 198.389 246.919 198.926 246.919 199.69C246.919 200.215 246.823 200.74 246.632 201.265C246.465 201.79 246.31 202.316 246.167 202.841C245.952 203.605 245.701 204.392 245.415 205.204C245.129 205.992 244.723 206.66 244.198 207.209C243.673 207.734 242.909 207.997 241.906 207.997H228.766C228.074 207.997 227.477 207.841 226.976 207.531C226.498 207.197 226.26 206.648 226.26 205.884C226.26 205.216 226.355 204.571 226.546 203.951C226.761 203.33 226.988 202.721 227.226 202.125V202.053C227.322 201.91 227.393 201.695 227.441 201.409C227.632 200.406 228.038 199.523 228.658 198.759C229.303 197.971 230.186 197.577 231.308 197.577Z" fill="#008A7B"/>
<path d="M90.0545 277.249C85.9728 277.249 82.7503 276.307 80.3872 274.421C78.048 272.511 76.8784 269.408 76.8784 265.112V249.537C76.8784 248.51 76.6516 247.746 76.1981 247.245C75.7446 246.744 75.2194 246.338 74.6227 246.028C74.026 245.694 73.5008 245.3 73.0473 244.846C72.5938 244.369 72.367 243.653 72.367 242.698C72.367 241.719 72.7131 240.955 73.4053 240.406C74.0976 239.834 74.9091 239.547 75.8401 239.547H77.4513C78.1435 239.547 78.8238 239.201 79.4921 238.509C80.1843 237.793 80.8766 236.91 81.5688 235.859C82.2849 234.809 83.0248 233.771 83.7887 232.744C84.5764 231.694 85.4118 230.823 86.295 230.131C87.1782 229.414 88.1449 229.056 89.1952 229.056C90.3887 229.056 91.3196 229.391 91.9879 230.059C92.6563 230.727 92.9905 231.658 92.9905 232.852V239.547H101.118C102.025 239.547 102.801 239.762 103.445 240.192C104.09 240.621 104.412 241.337 104.412 242.34C104.412 243.677 103.982 244.691 103.123 245.383C102.288 246.076 101.273 246.541 100.08 246.78C98.8863 246.994 97.7644 247.102 96.7141 247.102H92.9905V261.281C92.9905 262.45 93.2172 263.56 93.6708 264.61C94.1243 265.637 95.0552 266.15 96.4635 266.15C97.3944 266.15 98.1821 265.887 98.8266 265.362C99.495 264.813 100.116 264.276 100.688 263.751C101.285 263.226 101.918 262.963 102.586 262.963C103.207 262.963 103.636 263.262 103.875 263.858C104.138 264.455 104.269 264.992 104.269 265.47C104.269 267.881 103.541 269.969 102.085 271.735C100.629 273.502 98.8027 274.862 96.6067 275.817C94.4346 276.772 92.2505 277.249 90.0545 277.249Z" fill="#008A7B"/>
<path d="M106.061 267.976C106.061 265.78 106.574 263.954 107.6 262.498C108.627 261.018 109.963 259.836 111.61 258.953C113.281 258.046 115.083 257.402 117.017 257.02C118.95 256.638 120.812 256.447 122.602 256.447C123.127 256.447 123.665 256.459 124.214 256.483C124.763 256.483 125.3 256.53 125.825 256.626V247.317C125.825 246.72 125.693 246.028 125.431 245.24C125.192 244.452 124.691 244.059 123.927 244.059C123.187 244.059 122.722 244.369 122.531 244.989C122.364 245.586 122.28 246.159 122.28 246.708C122.28 246.947 122.28 247.197 122.28 247.46C122.304 247.699 122.316 247.949 122.316 248.212C122.316 250.67 121.469 252.401 119.774 253.404C118.079 254.382 116.146 254.872 113.973 254.872C112.159 254.872 110.584 254.466 109.247 253.654C107.91 252.843 107.242 251.41 107.242 249.358C107.242 248.546 107.397 247.758 107.708 246.994C108.042 246.231 108.459 245.55 108.961 244.954C110.417 243.187 112.243 241.839 114.439 240.908C116.659 239.977 118.986 239.344 121.421 239.01C123.879 238.652 126.183 238.473 128.331 238.473C130.766 238.473 132.998 238.819 135.027 239.511C137.055 240.204 138.679 241.361 139.896 242.984C141.113 244.584 141.722 246.744 141.722 249.465V265.971C141.722 266.377 141.817 266.735 142.008 267.045C142.199 267.355 142.522 267.511 142.975 267.511C143.333 267.511 143.632 267.403 143.87 267.188C144.133 266.95 144.443 266.83 144.801 266.83C145.493 266.83 146.007 267.069 146.341 267.546C146.699 268.024 146.878 268.585 146.878 269.229C146.878 270.9 146.365 272.344 145.338 273.562C144.336 274.755 143.083 275.662 141.579 276.283C140.075 276.927 138.559 277.249 137.032 277.249C135.241 277.249 133.427 276.856 131.589 276.068C129.775 275.28 128.522 274.051 127.83 272.38C126.612 274.075 124.942 275.316 122.817 276.104C120.717 276.867 118.652 277.249 116.623 277.249C114.761 277.249 113.019 276.903 111.395 276.211C109.796 275.495 108.507 274.445 107.529 273.06C106.55 271.676 106.061 269.981 106.061 267.976ZM122.208 264.825C122.208 265.78 122.435 266.687 122.889 267.546C123.342 268.382 124.118 268.799 125.216 268.799C125.431 268.799 125.634 268.776 125.825 268.728V261.316C125.419 261.149 125.001 261.066 124.572 261.066C123.665 261.066 123.044 261.519 122.71 262.426C122.376 263.309 122.208 264.109 122.208 264.825Z" fill="#008A7B"/>
<path d="M165.999 254.979V265.434C165.999 266.818 166.154 267.749 166.464 268.227C166.799 268.704 167.658 269.086 169.042 269.372C170.26 269.611 171.226 269.898 171.943 270.232C172.682 270.542 173.052 271.449 173.052 272.953C173.052 274.027 172.73 274.839 172.086 275.388C171.441 275.937 170.594 276.211 169.544 276.211H150.639C149.612 276.211 148.765 275.937 148.097 275.388C147.428 274.839 147.094 274.027 147.094 272.953C147.094 272.094 147.249 271.449 147.56 271.019C147.894 270.59 148.264 270.208 148.67 269.874C149.099 269.516 149.469 269.062 149.779 268.513C150.114 267.94 150.281 267.081 150.281 265.935V252.938C150.281 251.864 150.09 251.064 149.708 250.539C149.35 249.99 148.932 249.56 148.455 249.25C148.001 248.94 147.583 248.594 147.202 248.212C146.843 247.806 146.664 247.209 146.664 246.422C146.664 245.491 146.963 244.763 147.56 244.238C148.18 243.689 148.884 243.259 149.672 242.949L158.623 239.404C159.196 239.165 159.781 238.938 160.378 238.724C160.974 238.509 161.595 238.401 162.239 238.401C163.075 238.401 163.696 238.724 164.101 239.368C164.507 239.989 164.782 240.717 164.925 241.552C165.092 242.364 165.211 243.08 165.283 243.7C165.354 244.13 165.426 244.56 165.498 244.989C165.569 245.419 165.629 245.849 165.677 246.278C166.417 244.082 167.55 242.221 169.078 240.693C170.63 239.165 172.766 238.401 175.487 238.401C177.421 238.401 178.936 238.879 180.034 239.834C181.156 240.788 181.956 242.018 182.433 243.521C182.911 245.001 183.149 246.577 183.149 248.248C183.149 249.799 182.946 251.303 182.541 252.759C182.135 254.191 181.419 255.373 180.392 256.304C179.39 257.235 177.97 257.7 176.132 257.7C174.127 257.7 172.659 257.39 171.728 256.769C170.821 256.149 170.236 255.385 169.973 254.478C169.711 253.571 169.567 252.664 169.544 251.757C169.544 250.849 169.472 250.086 169.329 249.465C169.186 248.844 168.756 248.534 168.04 248.534C167.395 248.534 166.93 248.988 166.643 249.895C166.357 250.778 166.178 251.733 166.106 252.759C166.035 253.785 165.999 254.525 165.999 254.979Z" fill="#008A7B"/>
<path d="M199.728 281.51C200.635 281.51 201.351 281.104 201.877 280.293C202.402 279.481 202.855 278.586 203.237 277.607L188.665 249.465C188.235 248.63 187.579 247.902 186.695 247.281C185.812 246.636 185.001 245.968 184.261 245.276C183.521 244.584 183.151 243.748 183.151 242.77C183.151 241.695 183.485 240.896 184.153 240.371C184.822 239.822 185.669 239.547 186.695 239.547H205.851C206.877 239.547 207.725 239.81 208.393 240.335C209.061 240.86 209.396 241.66 209.396 242.734C209.396 243.689 209.181 244.393 208.751 244.846C208.321 245.3 207.82 245.646 207.247 245.885C206.698 246.099 206.209 246.35 205.779 246.636C205.35 246.899 205.135 247.317 205.135 247.89C205.135 248.558 205.242 249.226 205.457 249.895C205.672 250.563 205.934 251.207 206.245 251.828L211.114 261.531L215.518 252.365C216.019 251.315 216.27 250.193 216.27 249C216.27 247.997 216.019 247.305 215.518 246.923C215.041 246.541 214.48 246.243 213.835 246.028C213.215 245.813 212.654 245.491 212.153 245.061C211.675 244.608 211.436 243.82 211.436 242.698C211.436 241.624 211.771 240.836 212.439 240.335C213.131 239.81 213.979 239.547 214.981 239.547H225.436C226.462 239.547 227.298 239.822 227.942 240.371C228.611 240.896 228.945 241.695 228.945 242.77C228.945 243.605 228.79 244.226 228.479 244.631C228.169 245.013 227.728 245.467 227.155 245.992C226.128 246.947 225.352 247.806 224.827 248.57C224.302 249.31 223.741 250.312 223.145 251.577L213.406 272.129C212.523 273.991 211.58 275.972 210.577 278.073C209.598 280.197 208.465 282.178 207.176 284.016C205.887 285.878 204.347 287.394 202.557 288.564C200.767 289.757 198.63 290.354 196.148 290.354C193.856 290.354 191.78 289.912 189.918 289.029C188.08 288.146 186.612 286.857 185.514 285.162C184.44 283.467 183.903 281.427 183.903 279.04C183.903 277.178 184.38 275.59 185.335 274.278C186.314 272.965 187.805 272.308 189.81 272.308C191.123 272.308 192.197 272.619 193.033 273.239C193.892 273.86 194.596 274.624 195.145 275.531C195.718 276.438 196.219 277.345 196.649 278.252C197.103 279.183 197.556 279.959 198.01 280.579C198.487 281.2 199.06 281.51 199.728 281.51Z" fill="#008A7B"/>
<path d="M234.21 277.321C232.563 277.321 231.118 276.879 229.877 275.996C228.636 275.113 227.657 273.967 226.941 272.559C226.249 271.151 225.903 269.671 225.903 268.119C225.903 266.544 226.249 265.064 226.941 263.679C227.657 262.271 228.636 261.137 229.877 260.278C231.118 259.395 232.563 258.953 234.21 258.953C235.88 258.953 237.337 259.395 238.578 260.278C239.843 261.137 240.833 262.259 241.55 263.644C242.266 265.028 242.624 266.52 242.624 268.119C242.624 269.695 242.266 271.186 241.55 272.595C240.833 273.979 239.843 275.113 238.578 275.996C237.313 276.879 235.857 277.321 234.21 277.321Z" fill="#008A7B"/>
</svg>
