<svg width="356" height="518" viewBox="0 0 356 518" fill="none" xmlns="http://www.w3.org/2000/svg">
<path d="M295.292 68C297.455 68 299.132 69.8907 298.873 72.0381L296.836 88.917V432.679C296.836 433.327 296.886 433.974 296.986 434.614L298.715 445.76C299.054 447.946 297.364 449.919 295.152 449.919H57.8315C55.6687 449.919 53.9925 448.028 54.2514 445.881L56.2885 429.002V85.2393C56.2885 84.5911 56.2386 83.944 56.1392 83.3035L54.4096 72.1592C54.0705 69.9733 55.761 68.0001 57.9731 68H295.292Z" fill="url(#paint0_linear_1_303)"/>
<line x1="57.1101" y1="88.7369" x2="296.936" y2="88.7369" stroke="#70E0F9" stroke-width="1.08192"/>
<line x1="57.1101" y1="416.92" x2="296.936" y2="416.92" stroke="#62A49A" stroke-width="1.08192"/>
<line x1="57.1101" y1="93.4252" x2="296.936" y2="93.4252" stroke="#70E0F9" stroke-width="1.08192"/>
<line x1="57.1101" y1="421.609" x2="296.936" y2="421.609" stroke="#62A49A" stroke-width="1.08192"/>
<line x1="57.1101" y1="98.1136" x2="296.936" y2="98.1136" stroke="#70E0F9" stroke-width="1.08192"/>
<line x1="57.1101" y1="426.297" x2="296.936" y2="426.297" stroke="#62A49A" stroke-width="1.08192"/>
<line x1="57.1101" y1="102.802" x2="296.936" y2="102.802" stroke="#70E0F9" stroke-width="1.08192"/>
<line x1="57.1101" y1="430.985" x2="296.936" y2="430.985" stroke="#62A49A" stroke-width="1.08192"/>
<defs>
<linearGradient id="paint0_linear_1_303" x1="176.562" y1="68" x2="176.562" y2="449.919" gradientUnits="userSpaceOnUse">
<stop stop-color="#61A398"/>
<stop offset="1" stop-color="#71E1FB"/>
</linearGradient>
</defs>
</svg>
